<svg width="32" height="32" viewBox="0 0 32 32" fill="none" xmlns="http://www.w3.org/2000/svg">
<path d="M26.0001 12.6665H20.4445C18.6112 12.6665 17.1112 14.1665 17.1112 15.9998C17.1112 17.8332 18.6112 19.3332 20.4445 19.3332H26.0001C27.8334 19.3332 29.3334 17.8332 29.3334 15.9998C29.3334 14.1665 27.8334 12.6665 26.0001 12.6665ZM26.0001 17.1109H20.4445C19.8334 17.1109 19.3334 16.6109 19.3334 15.9998C19.3334 15.3887 19.8334 14.8887 20.4445 14.8887H26.0001C26.6112 14.8887 27.1112 15.3887 27.1112 15.9998C27.1112 16.6109 26.6112 17.1109 26.0001 17.1109ZM20.4445 9.33317H26.0001C27.8334 9.33317 29.3334 7.83317 29.3334 5.99984C29.3334 4.1665 27.8334 2.6665 26.0001 2.6665H20.4445C18.6112 2.6665 17.1112 4.1665 17.1112 5.99984C17.1112 7.83317 18.6112 9.33317 20.4445 9.33317ZM20.4445 4.88873H26.0001C26.6112 4.88873 27.1112 5.38873 27.1112 5.99984C27.1112 6.61095 26.6112 7.11095 26.0001 7.11095H20.4445C19.8334 7.11095 19.3334 6.61095 19.3334 5.99984C19.3334 5.38873 19.8334 4.88873 20.4445 4.88873ZM26.0001 22.6665H20.4445C18.6112 22.6665 17.1112 24.1665 17.1112 25.9998C17.1112 27.8332 18.6112 29.3332 20.4445 29.3332H26.0001C27.8334 29.3332 29.3334 27.8332 29.3334 25.9998C29.3334 24.1665 27.8334 22.6665 26.0001 22.6665ZM26.0001 27.111H20.4445C19.8334 27.111 19.3334 26.6109 19.3334 25.9998C19.3334 25.3887 19.8334 24.8887 20.4445 24.8887H26.0001C26.6112 24.8887 27.1112 25.3887 27.1112 25.9998C27.1112 26.6109 26.6112 27.111 26.0001 27.111ZM10.4445 17.1109H7.11119C4.65564 17.1109 2.66675 19.0998 2.66675 21.5554V24.8887C2.66675 27.3443 4.65564 29.3332 7.11119 29.3332H10.4445C12.9001 29.3332 14.889 27.3443 14.889 24.8887V21.5554C14.889 19.0998 12.9001 17.1109 10.4445 17.1109ZM12.6667 24.8887C12.6667 26.1109 11.6667 27.111 10.4445 27.111H7.11119C5.88897 27.111 4.88897 26.1109 4.88897 24.8887V21.5554C4.88897 20.3332 5.88897 19.3332 7.11119 19.3332H10.4445C11.6667 19.3332 12.6667 20.3332 12.6667 21.5554V24.8887ZM10.4445 2.6665H7.11119C4.65564 2.6665 2.66675 4.65539 2.66675 7.11095V10.4443C2.66675 12.8998 4.65564 14.8887 7.11119 14.8887H10.4445C12.9001 14.8887 14.889 12.8998 14.889 10.4443V7.11095C14.889 4.65539 12.9001 2.6665 10.4445 2.6665ZM12.6667 10.4443C12.6667 11.6665 11.6667 12.6665 10.4445 12.6665H7.11119C5.88897 12.6665 4.88897 11.6665 4.88897 10.4443V7.11095C4.88897 5.88873 5.88897 4.88873 7.11119 4.88873H10.4445C11.6667 4.88873 12.6667 5.88873 12.6667 7.11095V10.4443Z" fill="#333333"/>
</svg>
