<svg width="32" height="32" viewBox="0 0 32 32" fill="none" xmlns="http://www.w3.org/2000/svg">
<path fill-rule="evenodd" clip-rule="evenodd" d="M25.9977 11.1689L16.8672 16.441V26.9886L21.0471 24.5747L21.0483 24.5759L25.9977 21.7188L25.9977 11.1689ZM9.43351 11.2644L6.96055 9.83699L16.0965 4.56259L18.5695 5.98999L9.43351 11.2644ZM12.1133 12.8111L10.9677 12.1497L20.1037 6.87531L21.0504 7.42195L21.0709 7.43331L12.1133 12.8111ZM22.5917 8.31178L25.2328 9.83693L16.0968 15.1113L13.6341 13.6896L22.5917 8.31178ZM10.3301 13.5565V15.0851L11.2609 15.6226V14.0941L10.3301 13.5565ZM12.8008 14.9828V16.9534C12.8008 17.3784 12.4565 17.7239 12.0303 17.7239C11.8701 17.7239 11.7223 17.675 11.5996 17.5921L9.17551 16.1919C8.93003 16.0499 8.79252 15.7919 8.79252 15.5271H8.79025V12.6666L6.19567 11.1687V21.7187L11.1029 24.5519L11.1461 24.5747L15.326 26.9885V16.4409L12.8008 14.9828ZM7.19129 21.4162C6.82422 21.2037 6.6992 20.7332 6.91172 20.3661C7.12424 19.9991 7.59475 19.874 7.96183 20.0866L9.60742 21.0366C9.9745 21.2492 10.0995 21.7197 9.88699 22.0868C9.67448 22.4538 9.20396 22.5788 8.83689 22.3663L7.19129 21.4162ZM16.4888 3.01798L20.4731 5.31819C20.4811 5.32273 20.489 5.32728 20.497 5.33182L22.9325 6.73763C22.9552 6.74899 22.9779 6.76263 23.0007 6.77741L27.109 9.14921C27.2397 9.21399 27.3533 9.31627 27.4317 9.45266C27.5022 9.57426 27.5352 9.70609 27.5352 9.83792H27.5374V22.1597C27.5374 22.4711 27.3522 22.7393 27.0862 22.8609L21.8153 25.9044L21.8165 25.9055L16.5272 28.9592C16.4045 29.0422 16.2556 29.091 16.0965 29.091C15.9363 29.091 15.7885 29.0421 15.6658 28.9592L10.3766 25.9055L10.3368 25.8805L5.04435 22.8245C4.79773 22.6825 4.66022 22.4256 4.65909 22.1597H4.65568L4.65454 9.83703C4.65454 9.52565 4.83979 9.25743 5.10573 9.13582L15.7147 3.01131C15.9636 2.86811 16.2592 2.8816 16.4888 3.01798Z" fill="#333333"/>
</svg>
