<svg width="24" height="22" viewBox="0 0 24 22" fill="none" xmlns="http://www.w3.org/2000/svg">
<path d="M10.564 15.7466C7.05273 15.7466 4.18066 12.8745 4.18066 9.36328C4.18066 5.85205 7.05273 2.97998 10.564 2.97998C14.0752 2.97998 16.9473 5.85205 16.9473 9.36328C16.9473 10.8159 16.4575 12.1523 15.6357 13.2314L19.5454 17.1494C19.728 17.332 19.811 17.5645 19.811 17.8135C19.811 18.3447 19.4292 18.7598 18.8896 18.7598C18.6323 18.7598 18.3916 18.6685 18.209 18.4858L14.2744 14.5513C13.2285 15.2983 11.9502 15.7466 10.564 15.7466ZM10.564 14.3687C13.3032 14.3687 15.5693 12.1025 15.5693 9.36328C15.5693 6.62402 13.3032 4.35791 10.564 4.35791C7.82471 4.35791 5.55859 6.62402 5.55859 9.36328C5.55859 12.1025 7.82471 14.3687 10.564 14.3687Z" fill="#BDBDBD"/>
</svg>
