<svg width="32" height="32" viewBox="0 0 32 32" fill="none" xmlns="http://www.w3.org/2000/svg">
<path d="M11.5556 2.66675H6.00008C4.16675 2.66675 2.66675 4.16675 2.66675 6.00008V14.889H14.889V6.00008C14.889 4.16675 13.389 2.66675 11.5556 2.66675ZM12.6667 12.6667H4.88897V6.00008C4.88897 5.38897 5.38897 4.88897 6.00008 4.88897H11.5556C12.1667 4.88897 12.6667 5.38897 12.6667 6.00008V12.6667ZM26.0001 17.1112H20.4445C18.6112 17.1112 17.1112 18.6112 17.1112 20.4445V29.3334H29.3334V20.4445C29.3334 18.6112 27.8334 17.1112 26.0001 17.1112ZM27.1112 27.1112H19.3334V20.4445C19.3334 19.8334 19.8334 19.3334 20.4445 19.3334H26.0001C26.6112 19.3334 27.1112 19.8334 27.1112 20.4445V27.1112ZM17.7667 9.78897C16.9001 8.9223 16.9001 7.51119 17.7667 6.64453L21.4223 2.98897L22.989 4.55564L20.4445 7.10008H23.7779C26.2334 7.10008 28.2223 9.08897 28.2223 11.5445V14.8779H26.0001V11.5445C26.0001 10.3223 25.0001 9.3223 23.7779 9.3223H20.4445L22.989 11.8667L21.4223 13.4334L17.7667 9.77786V9.78897ZM14.2445 22.2001C15.1112 23.0667 15.1112 24.4779 14.2445 25.3445L10.589 29.0001L9.0223 27.4334L11.5667 24.889H8.23342C5.77786 24.889 3.78897 22.9001 3.78897 20.4445V17.1112H6.00008V20.4445C6.00008 21.6667 7.00008 22.6667 8.2223 22.6667H11.5556L9.01119 20.1223L10.5779 18.5556L14.2334 22.2112L14.2445 22.2001Z" fill="#333333"/>
</svg>
