<svg width="28" height="26" viewBox="0 0 28 26" fill="none" xmlns="http://www.w3.org/2000/svg">
<path d="M26.9146 20.5235L24.4543 17.3388C24.3776 17.2393 24.2584 17.1802 24.132 17.1802H22.45V16.3169C22.45 16.092 22.2676 15.9107 22.0438 15.9107H21.479V8.00435C21.479 7.86859 21.4116 7.74215 21.2986 7.66651L11.4659 1.06918C11.3291 0.976941 11.1498 0.976941 11.0131 1.06918L1.18032 7.66651C1.06736 7.74216 1 7.8686 1 8.00435V22.6685C1 22.8934 1.1824 23.0748 1.40623 23.0748H13.5139V24.3163C13.5139 24.5412 13.6963 24.7226 13.9202 24.7226H15.0508C15.227 25.3236 15.7835 25.7631 16.4406 25.7631C17.0987 25.7631 17.6541 25.3226 17.8303 24.7226H22.9303C23.1065 25.3236 23.6619 25.7631 24.319 25.7631C24.9771 25.7631 25.5325 25.3226 25.7087 24.7226H26.5927C26.8176 24.7226 26.999 24.5402 26.999 24.3163L27 20.7721C27 20.682 26.9699 20.5949 26.915 20.5234L26.9146 20.5235ZM23.9331 17.9948L25.7643 20.366H22.4512V17.9948H23.9331ZM1.81329 8.22099L11.2398 1.89718L20.6664 8.22205V15.9127H18.3802V11.3972H18.7087C18.9336 11.3972 19.115 11.2148 19.115 10.991V9.47065C19.115 9.24576 18.9326 9.06442 18.7087 9.06442H3.76887C3.54399 9.06442 3.36264 9.24681 3.36264 9.47065V10.991C3.36264 11.2159 3.54504 11.3972 3.76887 11.3972H4.09947V22.2612H1.81329V8.22099ZM6.46434 16.1862C6.68923 16.1862 6.87058 16.0038 6.87058 15.78V15.24H8.01677V18.3428H4.91191V15.24H6.05811V15.78C6.05811 16.0049 6.24051 16.1862 6.46434 16.1862ZM4.17506 10.5838V9.87699H18.3015V10.5838H4.17506ZM4.91189 19.1563H6.05808V19.6963C6.05808 19.9212 6.24048 20.1025 6.46432 20.1025C6.68921 20.1025 6.87055 19.9201 6.87055 19.6963V19.1563H8.01675V22.2612H4.91189V19.1563ZM8.83044 22.2612V19.1563H9.97456V19.6963C9.97456 19.9212 10.157 20.1025 10.3808 20.1025C10.6057 20.1025 10.787 19.9201 10.787 19.6963V19.1563H11.9332V22.2612H8.83044ZM13.5125 16.3189V22.2612H12.7477V18.7501C12.7477 18.5252 12.5653 18.3439 12.3415 18.3439L8.83044 18.3429V14.8329C8.83044 14.608 8.64804 14.4266 8.4242 14.4266H4.9121V11.3974H17.5669V15.9118H13.92C13.6951 15.9118 13.5127 16.0942 13.5127 16.3191L13.5125 16.3189ZM16.4402 24.9506C16.0899 24.9506 15.8049 24.6666 15.8049 24.3163C15.8049 23.9661 16.0899 23.6811 16.4402 23.6811C16.7905 23.6811 17.0754 23.9661 17.0754 24.3163C17.0754 24.6656 16.7905 24.9506 16.4402 24.9506ZM16.4402 22.8675C15.7821 22.8675 15.2266 23.308 15.0504 23.9101H14.327V16.7262H21.6386V23.9111L17.8309 23.9091C17.6547 23.308 17.0983 22.8675 16.4402 22.8675ZM24.3184 24.9506C23.9692 24.9506 23.6842 24.6666 23.6842 24.3163C23.6842 23.9661 23.9681 23.6811 24.3184 23.6811C24.6687 23.6811 24.9537 23.9661 24.9537 24.3163C24.9537 24.6656 24.6687 24.9506 24.3184 24.9506ZM25.7092 23.909C25.533 23.308 24.9765 22.8665 24.3184 22.8665C23.6613 22.8665 23.1059 23.3069 22.9297 23.909H22.4509V21.1793H26.1859V23.9101H25.7091L25.7092 23.909Z" fill="black" stroke="black" stroke-width="0.2"/>
</svg>
